# xmcd CD database file
#
# Track frame offsets:
#	150
#	14045
#	26645
#	41040
#	55527
#	69817
#	84145
#	99400
#	112492
#	126775
#	140232
#	154387
#	170510
#	186690
#	198667
#	211122
#	225787
#	239215
#	253442
#	266087
#	279290
#	294950
#	310280
#	323292
#	335772
#
# Disc length: 4643 seconds
#
# Revision: 1
# Processed by: cddbd v1.5.2PL0 Copyright (c) Steve Scherf et al.
# Submitted via: CDex 1.99.1
#
DISCID=7b122119
DTITLE=Various Artist - St. Louis Barrelhouse Piano (1929-1934)
DYEAR=1900
DGENRE=Blues
TTITLE0=Wesley Wallace - St. Louis Daddy (Bessie Mae Smith vcl)
TTITLE1=Wesley Wallace - Farewell Baby Blues (Bessie Mae Smith vcl)
TTITLE2=Wesley Wallace - Wicked Devil's Blues (Robert Peeples vcl)
TTITLE3=Wesley Wallace - Fat Greasy Babys (Robert Peeples vcl)
TTITLE4=Wesley Wallace - No. 29
TTITLE5=Wesley Wallace - Fanny Lee Blues
TTITLE6=Wesley Wallace - Dying Baby Bluess (Robert Peeples vcl)
TTITLE7=Wesley Wallace - Mama's Boys (Robert Peeples vcl)
TTITLE8=Sylvester Palmer- Do It Sloppy
TTITLE9=Sylvester Palmer - Broke Man Blues
TTITLE10=Sylvester Palmer - Mean Blues
TTITLE11=Sylvester Palmer - Lonesome Man Blues
TTITLE12=Henry Brown - Stomp 'Em Down to the Bricks
TTITLE13=Henry Brown - Malt Can Blues (w/ Ike Rodgers and His Biddle Street Boys)
TTITLE14=Henry Brown -  Twenty First St. Stomp
TTITLE15=Henry Brown -  It Hurts So Good
TTITLE16=Henry Brown -  Henry Brown Blues
TTITLE17=Henry Brown -  Screenin' the Blues
TTITLE18=Henry Brown -  Blues Stomp
TTITLE19=Henry Brown -  Blind Boy Blues
TTITLE20=Henry Brown -  Eastern Chimes Blues
TTITLE21=Henry Brown -  Deep Morgan Blues
TTITLE22=Henry Brown -  All Men Blues (Dolly Martin vcl)
TTITLE23=Henry Brown - Beef Man Blues (Tee McDonald vcl)
TTITLE24=Henry Brown - Throw Me in the Alley (Peetie Wheatstraw and His Blues Blowers)
EXTD=
EXTT0=
EXTT1=
EXTT2=
EXTT3=
EXTT4=
EXTT5=
EXTT6=
EXTT7=
EXTT8=
EXTT9=
EXTT10=
EXTT11=
EXTT12=
EXTT13=
EXTT14=
EXTT15=
EXTT16=
EXTT17=
EXTT18=
EXTT19=
EXTT20=
EXTT21=
EXTT22=
EXTT23=
EXTT24=
PLAYORDER=
